<svg width="12" height="6" viewBox="0 0 12 6" fill="none" xmlns="http://www.w3.org/2000/svg">
<path opacity="0.5" d="M11.9997 0.839809C11.9464 1.06896 11.7825 1.2336 11.5999 1.39357C9.9464 2.84089 8.2956 4.29054 6.64513 5.74049C6.38535 5.96876 6.08333 6.06451 5.72976 5.95417C5.60203 5.91447 5.47697 5.8409 5.38051 5.75654C3.67615 4.2669 1.97546 2.77346 0.275436 1.27973C0.0176548 1.05349 -0.0701572 0.78201 0.0588998 0.479294C0.179641 0.194968 0.427777 0.0335387 0.77337 0.00376332C1.05244 -0.0204657 1.28228 0.0776179 1.47686 0.249264C1.86803 0.594308 2.26085 0.937893 2.65268 1.28206C3.73503 2.23225 4.81771 3.18214 5.89939 4.13262C5.92966 4.15918 5.95295 4.19158 6.03111 4.24062C6.0544 4.20472 6.07003 4.1621 6.10196 4.13378C7.57248 2.84089 9.04466 1.54975 10.5162 0.257438C10.7683 0.0361659 11.0607 -0.0587066 11.4106 0.0373336C11.6863 0.11294 11.8689 0.275828 11.9574 0.51841C11.9714 0.557235 11.9857 0.595768 12 0.634301C11.9997 0.702901 11.9997 0.771209 11.9997 0.839809Z" fill="white"/>
</svg>
